# xmcd
#
# Track frame offsets:
#	150
#	12428
#	26510
#	42190
#	56764
#	65812
#	78800
#	88338
#	100389
#	121684
#	134861
#	144932
#	159460
#	176709
#
# Disc length: 2558 seconds
#
# Revision: 1
# Processed by: cddbd v1.5.2PL0 Copyright (c) Steve Scherf et al.
# Submitted via: audiograbber 1.83.01
#
DISCID=c109fc0e
DTITLE=Various Artist - albi - Swinging Songs
DYEAR=1900
DGENRE=Swinging
TTITLE0=Perry Como - Papa loves mambo
TTITLE1=Bobby Darin - Mack the knife
TTITLE2=Aretha Franklin - I say a little prayer
TTITLE3=Andy Williams - Can't take my eyes of you
TTITLE4=Shirley Bassey - Big spender
TTITLE5=B.J. Thomas - Raindrops keep falling on my head
TTITLE6=Doris Day - Que sera sera
TTITLE7=Dionne Warwick - Walk on by
TTITLE8=Louis Prima - Just a gigolo
TTITLE9=Tony Bennett - Ileft my heart in San Francisco
TTITLE10=Dean Martin - Memories are made of this
TTITLE11=Jackie DeShannon - What the world needs now is love
TTITLE12=Vic Damone - Smoke gets in your eyes
TTITLE13=Engelbert - As time goes by
EXTD=
EXTT0=
EXTT1=
EXTT2=
EXTT3=
EXTT4=
EXTT5=
EXTT6=
EXTT7=
EXTT8=
EXTT9=
EXTT10=
EXTT11=
EXTT12=
EXTT13=
PLAYORDER=
